<svg version="1" xmlns="http://www.w3.org/2000/svg" width="346.667" height="346.667" viewBox="0 0 260.000000 260.000000"><path d="M59.1 72.2c-.2 9.8.1 12.8 1.1 12.9 1.3.2 6 .6 8.9.8 1.5.1 1.6 4.3 1.6 44.6V175H65c-3.7 0-5.9.4-6.2 1.2-.2.7-.4 6.5-.4 12.8l.1 11.5 27.2.2 27.2.2-.1-12.9-.1-13H101l.1-32.3c0-25.3.3-31.8 1.2-30.4.7 1 13.1 20.3 27.7 43s27.2 42.2 28 43.4c1.5 2 2.3 2.1 16.8 2.1H190l.1-3.2c0-1.7.1-27.5.1-57.4 0-39.5.3-54.2 1.2-54.3.6-.1 3.1-.2 5.6-.3l4.5-.1.1-12c0-6.6-.1-12.5-.3-13-.2-.7-9.1-1.1-26.6-1h-26.2l-.3 12.7c-.2 9.8 0 12.8 1 12.9.7.1 3.3.2 5.8.3l4.5.1.1 32.2c0 17.8-.3 32.3-.8 32.3-.4 0-.8-.3-.8-.8 0-.4-7.9-13.1-17.4-28.2-9.6-15.1-22.2-35.2-28.1-44.6l-10.7-17H80.5l-21.3-.1-.1 12.9z"/></svg>